<?xml version="1.0" encoding="UTF-8"?>
<svg width="24px" height="20px" viewBox="0 0 24 20" version="1.1" xmlns="http://www.w3.org/2000/svg" xmlns:xlink="http://www.w3.org/1999/xlink">
    <!-- Generator: sketchtool 63.1 (101010) - https://sketch.com -->
    <title>083D95F6-823D-463B-9109-F7773BAE8ED4</title>
    <desc>Created with sketchtool.</desc>
    <defs>
        <path d="M13.7238576,1.05719096 C14.2445567,0.536491903 15.0887767,0.536491903 15.6094757,1.05719096 L15.6094757,1.05719096 L23.6094757,9.05719096 C23.6159041,9.06361934 23.6222531,9.07009703 23.6285228,9.07662282 C23.6482636,9.09716792 23.6677448,9.1188033 23.6865105,9.14106157 C23.6969682,9.15339358 23.7065676,9.16518466 23.7159352,9.17709852 C23.7676001,9.24293842 23.8135798,9.31431903 23.852545,9.38990539 C23.8621652,9.40842473 23.8711975,9.42704144 23.8797713,9.44581623 C23.8909363,9.47028919 23.9015428,9.49546922 23.9113846,9.52102891 C23.9170272,9.53580145 23.9223194,9.55034522 23.9273504,9.56495901 C23.9363294,9.59076174 23.9446296,9.61748403 23.9520977,9.64455146 C23.9572216,9.66354919 23.961998,9.68251589 23.9663519,9.70155965 C23.9715484,9.72377844 23.9760277,9.74596954 23.9799487,9.76835273 C23.9839356,9.79162678 23.9874913,9.81564815 23.9903908,9.83973347 C23.9967828,9.89263355 24,9.94594107 24,10 L23.9960178,9.89671074 C23.9977189,9.91873695 23.998875,9.94079735 23.9994861,9.96287003 L24,10 C24,10.0125212 23.9998274,10.025002 23.9994845,10.0374403 C23.9988658,10.0595371 23.9976838,10.0819315 23.9959401,10.1042904 C23.9945768,10.122395 23.9928444,10.1401134 23.9907686,10.1577267 C23.987705,10.1830367 23.9839118,10.2087287 23.9793681,10.2343136 C23.9758945,10.2545055 23.9719228,10.2742427 23.9675206,10.293817 C23.9628192,10.3142147 23.9576538,10.3348899 23.9519867,10.3554558 C23.9324045,10.4267904 23.9069994,10.4955881 23.8763715,10.561466 C23.8709439,10.5732667 23.8652691,10.5850392 23.8594113,10.5967434 C23.8156839,10.6828984 23.7666241,10.7591207 23.7105881,10.8295442 C23.679401,10.8687983 23.6456983,10.9065865 23.6094757,10.942809 L23.6974054,10.8458481 C23.6753157,10.8727349 23.6521946,10.898742 23.6281025,10.9238091 L23.6094757,10.942809 L15.6094757,18.942809 C15.0887767,19.4635081 14.2445567,19.4635081 13.7238576,18.942809 C13.2031586,18.42211 13.2031586,17.57789 13.7238576,17.057191 L13.7238576,17.057191 L19.448,11.3326667 L1.33333333,11.3333333 C0.640270118,11.3333333 0.0707122861,10.8045439 0.00610362494,10.1284089 L0,10 C0,9.26362033 0.596953667,8.66666667 1.33333333,8.66666667 L1.33333333,8.66666667 L19.447,8.66566667 L13.7238576,2.94280904 C13.2378718,2.45682326 13.2054728,1.68901481 13.6266605,1.16545267 Z" id="path-1"></path>
    </defs>
    <g id="Page-1" stroke="none" stroke-width="1" fill="none" fill-rule="evenodd">
        <g id="Home_page_1" transform="translate(-491.000000, -3705.000000)">
            <g id="4th-screen" transform="translate(160.000000, 3214.000000)">
                <g id="arrow-right" transform="translate(331.000000, 491.000000)">
                    <mask id="mask-2" fill="white">
                        <use xlink:href="#path-1"></use>
                    </mask>
                    <use id="Combined-Shape" fill="#000000" fill-rule="nonzero" xlink:href="#path-1"></use>
                    <g id="🎨Color" mask="url(#mask-2)" fill="#202020">
                        <g transform="translate(-4.000000, -6.000000)" id="Rectangle">
                            <rect x="0" y="0" width="32" height="32"></rect>
                        </g>
                    </g>
                </g>
            </g>
        </g>
    </g>
</svg>
