<?xml version="1.0" encoding="UTF-8"?>
<svg width="30px" height="24px" viewBox="0 0 30 24" version="1.1" xmlns="http://www.w3.org/2000/svg" xmlns:xlink="http://www.w3.org/1999/xlink">
    <!-- Generator: sketchtool 63.1 (101010) - https://sketch.com -->
    <title>46A293E4-05FA-48C4-A4C9-F7F58EDC3B99</title>
    <desc>Created with sketchtool.</desc>
    <defs>
        <path d="M29.8571478,12.6761324 C29.8184156,12.763294 29.7724246,12.8465156 29.7199421,12.9250299 C29.7096292,12.9407039 29.699142,12.955831 29.6883759,12.9708196 C29.6708818,12.9949677 29.6529609,13.0185786 29.6344372,13.0416855 C29.5968974,13.0886327 29.5558593,13.1344967 29.5118446,13.1785113 L29.5933782,13.0909411 C29.5735934,13.1137728 29.5531983,13.1360613 29.5322184,13.1577813 L29.5118446,13.1785113 L19.5118446,23.1785113 C18.8609708,23.8293851 17.8056959,23.8293851 17.154822,23.1785113 C16.5039482,22.5276375 16.5039482,21.4723625 17.154822,20.8214887 L17.154822,20.8214887 L24.309,13.6663333 L1.66666667,13.6666667 C0.794638114,13.6666667 0.0790293121,12.9969541 0.00611766135,12.1438064 L0,12 C0,11.0795254 0.746192084,10.3333333 1.66666667,10.3333333 L1.66666667,10.3333333 L24.309,10.3323333 L17.154822,3.1785113 C16.5422349,2.56592418 16.5062004,1.5951132 17.0467184,0.940382095 L17.154822,0.821488698 C17.8056959,0.170614878 18.8609708,0.170614878 19.5118446,0.821488698 L19.5118446,0.821488698 L29.5118446,10.8214887 C29.5153837,10.8250278 29.5189036,10.8285789 29.5224042,10.8321418 C29.5513816,10.8616396 29.5793433,10.8922962 29.6061443,10.9239664 C29.6138253,10.9329437 29.6213403,10.9420056 29.6287445,10.9511275 C29.6510748,10.9787977 29.6725984,11.0071453 29.6932153,11.0361817 C29.7022949,11.0487295 29.7111465,11.0615653 29.7197977,11.0744953 C29.7736077,11.1552543 29.8204859,11.2404606 29.8597561,11.3297682 C29.8660286,11.3439858 29.8722052,11.3586242 29.8781633,11.3733304 C29.8906717,11.4041135 29.9022515,11.4352809 29.91291,11.4668722 C29.9180951,11.4825369 29.9231064,11.4981901 29.9278807,11.5139 C29.9374651,11.544977 29.9461139,11.5767109 29.953834,11.6088065 C29.9578084,11.6259687 29.9616024,11.6429251 29.965129,11.6599259 C29.9712243,11.6885698 29.9765044,11.717933 29.9810049,11.7475522 C29.9842947,11.7699553 29.9872346,11.7922771 29.9897226,11.8146397 C29.996545,11.8755394 30,11.9373662 30,12 L29.9962332,11.8876634 C29.9978251,11.9113723 29.9989125,11.9351086 29.9994952,11.9588551 L30,12 C30,12.0137937 29.9998324,12.0275482 29.9994992,12.0412616 C29.9989125,12.0648914 29.9978251,12.0886277 29.9962332,12.1123366 C29.9946578,12.1366661 29.9924964,12.1610616 29.9898153,12.1853003 C29.9872346,12.2077229 29.9842947,12.2300447 29.9809031,12.2523111 C29.9765044,12.282067 29.9712243,12.3114302 29.9651861,12.3405157 C29.9616024,12.3570749 29.9578084,12.3740313 29.9537469,12.3909366 C29.9461139,12.4232891 29.9374651,12.455023 29.9279175,12.4863652 C29.9231159,12.5017789 29.9181149,12.5174014 29.9128778,12.5329619 C29.9036381,12.5606094 29.893669,12.5877701 29.8830239,12.614589 C29.8768079,12.6302479 29.8701268,12.6463874 29.8631814,12.66244 Z" id="path-1"></path>
    </defs>
    <g id="Page-1" stroke="none" stroke-width="1" fill="none" fill-rule="evenodd">
        <g id="Home_page_1" transform="translate(-1037.000000, -3014.000000)">
            <g id="3d-screen" transform="translate(160.000000, 2100.000000)">
                <g id="big-article" transform="translate(548.000000, 0.000000)">
                    <g id="arrow-right" transform="translate(329.000000, 914.000000)">
                        <mask id="mask-2" fill="white">
                            <use xlink:href="#path-1"></use>
                        </mask>
                        <use id="Combined-Shape" fill="#000000" fill-rule="nonzero" xlink:href="#path-1"></use>
                        <g id="🎨Color" mask="url(#mask-2)" fill="#FFFFFF">
                            <g transform="translate(-5.000000, -8.000000)" id="Rectangle">
                                <rect x="0" y="0" width="53.3333333" height="53.3333333"></rect>
                            </g>
                        </g>
                    </g>
                </g>
            </g>
        </g>
    </g>
</svg>